<?xml version="1.0"?>
<svg xmlns="http://www.w3.org/2000/svg" xmlns:xlink="http://www.w3.org/1999/xlink" xmlns:svgjs="http://svgjs.com/svgjs" version="1.1" width="512" height="512" x="0" y="0" viewBox="0 0 512 512" style="enable-background:new 0 0 512 512" xml:space="preserve" class=""><g><g xmlns="http://www.w3.org/2000/svg"><g><path d="m475.78 321.48c-4.5 15.14-10.55 29.73-18.07 43.62l25.61 25.62-92.6 92.6-25.62-25.61c-13.89 7.52-28.49 13.57-43.62 18.07v36.22h-130.96v-36.22c-15.13-4.5-29.73-10.55-43.62-18.07l-25.62 25.61-92.6-92.6 25.61-25.62c-7.52-13.89-13.57-28.49-18.07-43.62h-36.22v-130.96h36.22c4.5-15.13 10.55-29.73 18.07-43.62l-25.61-25.62 92.6-92.6 25.62 25.61c13.89-7.52 28.49-13.57 43.62-18.07v-36.22h130.96v36.22c15.13 4.5 29.73 10.55 43.62 18.07l25.62-25.61 92.6 92.6-25.61 25.62c7.52 13.89 13.57 28.49 18.07 43.62h36.22v130.96z" fill="#ff0054" data-original="#555c7c" style="" class=""/><path d="m475.78 321.48c-4.5 15.14-10.55 29.73-18.07 43.62l25.61 25.62-92.6 92.6-25.62-25.61c-13.89 7.52-28.49 13.57-43.62 18.07v36.22h-65.48v-512h65.48v36.22c15.13 4.5 29.73 10.55 43.62 18.07l25.62-25.61 92.6 92.6-25.61 25.62c7.52 13.89 13.57 28.49 18.07 43.62h36.22v130.96z" fill="#ff0054" data-original="#373b5b" style="" class=""/><circle cx="256" cy="256" fill="#ffffff" r="175" data-original="#ffffff" style="" class=""/><path d="m431 256c0 96.5-78.5 175-175 175v-350c96.5 0 175 78.5 175 175z" fill="#ffffff" data-original="#eeefff" style="" class=""/><g><g><path d="m327.06 309.793-21.213-21.212 27.12-27.121-27.12-27.121 21.213-21.213 48.334 48.334z" fill="#000000" data-original="#64c8ff" style="" class=""/></g><g><path d="m184.94 309.793-48.334-48.333 48.334-48.334 21.213 21.213-27.12 27.121 27.12 27.121z" fill="#000000" data-original="#7be6ff" style="" class=""/></g><g><path d="m288.72 159.37-32.27 183.04-2.72 15.43-29.55-5.21 32.27-182.99 2.73-15.48z" fill="#000000" data-original="#7be6ff" style="" class=""/></g></g></g><path d="m288.72 159.37-32.27 183.04v-172.77l2.73-15.48z" fill="#000000" data-original="#64c8ff" style="" class=""/></g></g></svg>
