<svg version="1" xmlns="http://www.w3.org/2000/svg" width="933.333" height="933.333" viewBox="0 0 700.000000 700.000000"><path d="M259.8 24.6l-.3 24.6L246 54c-14.8 5.2-18.3 6.7-34.3 14.2l-10.8 5.2-17.5-17.5L166 38.5l-63.7 63.8L38.5 166l17.4 17.4 17.5 17.5-5.7 11.9c-6.8 14.3-8.7 19.1-14.2 34.7l-4.3 12-24.6.3L0 260v180l24.6.2 24.6.3 4.2 12c5 14.1 12.4 31.6 17 40l3.3 6-17.6 17.8L38.5 534l63.8 63.7 63.7 63.8 17.7-17.6 17.8-17.5 9.4 4.7c11.6 5.9 21.1 10 36.6 15.4l12 4.3.3 24.6.2 24.6h180v-24.5c0-18.8.3-24.7 1.3-25 14.7-5 34.1-12.6 44.5-17.5l13.3-6.4 17.5 17.5 17.4 17.4 63.7-63.8 63.8-63.7-17.4-17.4-17.5-17.5 5.6-11.8c7.4-15.5 8.2-17.4 13.8-33.3l4.8-13.5 24.6-.3 24.6-.2V260l-24.7-.2-24.6-.3-3.7-11c-5-14.6-7-19.6-14.3-34.8l-6.1-12.8 17.5-17.5 17.4-17.4-63.8-63.7L534 38.5l-17.4 17.4-17.5 17.5-12.8-6.1C471.1 60 466.1 58 451.5 53l-11-3.7-.3-24.6L440 0H260l-.2 24.6zM390 114.4c34 5.9 64 17.8 91.8 36.3 56.8 37.7 94.1 96.2 104.8 164.3 2.8 17.4 2.6 55-.4 72-9.6 55.8-33.8 100.7-75 139.2-23.6 22.1-53.4 39.6-87.7 51.3-7.2 2.5-27.8 7.3-39 9.2-15.3 2.5-51.1 2.5-68-.1-78.8-11.9-146.3-60.9-180.5-131.1-11.7-23.8-18.7-46.4-22.6-72-2.5-16.4-2.5-50.4-.1-66.5 3.9-25.9 10.9-48.5 22.1-71.5 33.9-69.4 98.9-118.2 174.6-131 25.2-4.3 56-4.3 80-.1z"/><path d="M353.6 212.9c-1.4 6.6-46.5 264-46.8 266.6l-.3 2.9 20.2 3.6c17.8 3.2 20.3 3.4 20.7 2.1 1-3.2 47.8-270.3 47.4-270.6-.1-.1-9.4-1.8-20.5-3.7l-20.2-3.5-.5 2.6zM219.7 323.8c-18 18-32.7 33.2-32.7 33.7 0 .6 14.7 15.7 32.8 33.8l32.7 32.7 14.8-14.8 14.7-14.7-18.5-18.5-18.5-18.5 18.7-18.7 18.8-18.8-14.5-14.5c-8-8-14.7-14.5-15-14.5-.3 0-15.2 14.7-33.3 32.8zM432 305.5L417.5 320l18.8 18.8 18.7 18.7-18.5 18.5-18.5 18.5 14.7 14.7 14.8 14.8 32.7-32.7c18.1-18.1 32.8-33.2 32.8-33.8 0-1-65-66.5-66-66.5-.3 0-7 6.5-15 14.5z"/></svg>